<svg id="svg" xmlns="http://www.w3.org/2000/svg" xmlns:xlink="http://www.w3.org/1999/xlink" width="400" height="323.07692307692304" viewBox="0, 0, 400,323.07692307692304"><g id="svgg"><path id="path0" d="M75.882 5.308 C 64.349 41.568,0.000 245.674,0.000 245.992 C 0.000 246.227,18.626 263.667,41.392 284.748 L 82.784 323.077 128.394 323.077 L 174.003 323.077 180.883 295.547 L 187.763 268.016 192.266 272.314 L 196.769 276.612 209.084 276.614 L 221.398 276.615 241.341 299.846 L 261.284 323.077 307.643 323.077 L 354.001 323.077 377.077 207.692 L 400.152 92.308 377.077 46.153 L 354.001 -0.002 307.257 0.076 L 260.513 0.154 252.846 23.154 L 245.179 46.154 232.492 46.154 L 219.805 46.154 217.717 53.154 C 216.568 57.004,215.531 60.332,215.411 60.549 C 215.274 60.800,207.105 49.789,193.100 30.473 L 171.007 0.000 124.288 0.000 L 77.570 0.000 75.882 5.308 M161.844 17.154 C 161.526 18.127,160.300 21.969,159.120 25.692 C 157.939 29.415,155.986 35.542,154.781 39.308 L 152.589 46.154 115.954 46.154 C 86.775 46.154,79.348 46.076,79.461 45.769 C 79.539 45.558,81.716 38.738,84.300 30.615 C 86.884 22.492,89.059 15.742,89.133 15.615 C 89.207 15.488,105.727 15.385,125.844 15.385 L 162.421 15.385 161.844 17.154 M340.927 15.615 C 340.929 15.742,337.295 33.050,332.852 54.077 L 324.774 92.308 306.412 92.308 L 288.050 92.308 295.717 69.310 C 299.934 56.661,303.385 46.277,303.385 46.233 C 303.385 46.189,294.038 46.154,282.615 46.154 C 271.192 46.154,261.846 46.048,261.846 45.919 C 261.846 45.730,271.324 17.122,271.835 15.769 C 271.999 15.336,340.920 15.182,340.927 15.615 M173.231 61.841 C 173.231 62.057,162.017 100.814,160.120 107.154 C 159.966 107.666,163.966 107.692,241.089 107.692 C 305.862 107.692,322.192 107.770,322.081 108.077 C 322.005 108.288,314.203 139.442,304.742 177.308 L 287.540 246.154 247.734 246.154 L 207.928 246.154 208.070 245.462 C 208.149 245.081,213.980 222.393,221.029 195.044 C 228.079 167.695,233.846 145.161,233.846 144.967 C 233.846 144.708,229.969 144.615,219.137 144.615 L 204.427 144.615 196.297 171.558 C 191.825 186.376,188.086 198.631,187.987 198.790 C 187.876 198.969,177.907 199.050,161.953 199.002 L 136.098 198.923 144.192 172.154 C 148.644 157.431,152.292 145.212,152.297 145.000 C 152.305 144.698,149.166 144.615,137.596 144.615 L 122.885 144.615 119.349 156.846 L 115.813 169.077 99.930 169.157 L 84.047 169.236 89.100 154.083 C 91.880 145.749,94.154 138.826,94.154 138.698 C 94.154 138.570,84.210 138.430,72.056 138.387 L 49.959 138.308 62.287 99.924 L 74.615 61.540 123.923 61.539 C 156.055 61.539,173.231 61.644,173.231 61.841 M281.538 61.772 C 281.538 61.900,279.277 68.788,276.512 77.079 L 271.486 92.154 246.030 92.233 L 220.573 92.311 220.793 91.617 C 221.188 90.375,229.538 61.756,229.538 61.646 C 229.538 61.587,241.238 61.538,255.538 61.538 C 269.838 61.538,281.538 61.643,281.538 61.772 M62.308 184.614 L 52.051 215.381 77.215 215.460 L 102.379 215.538 100.190 223.152 L 98.000 230.765 59.630 230.767 L 21.260 230.769 21.656 229.462 C 21.874 228.742,27.227 211.435,33.552 191.000 L 45.051 153.846 58.808 153.846 L 72.565 153.846 62.308 184.614 M111.048 185.615 C 110.890 186.165,109.897 189.592,108.842 193.231 L 106.923 199.846 90.351 199.926 C 77.134 199.989,73.807 199.927,73.922 199.618 C 74.001 199.405,75.156 195.942,76.490 191.923 L 78.913 184.615 95.124 184.615 L 111.335 184.615 111.048 185.615 " stroke="none" fill="#000000" fill-rule="evenodd"></path></g></svg>