<?xml version="1.0" standalone="no"?>
<!DOCTYPE svg PUBLIC "-//W3C//DTD SVG 20010904//EN"
 "http://www.w3.org/TR/2001/REC-SVG-20010904/DTD/svg10.dtd">
<svg version="1.0" xmlns="http://www.w3.org/2000/svg"
 width="1100.000000pt" height="1100.000000pt" viewBox="0 0 1100.000000 1100.000000"
 preserveAspectRatio="xMidYMid meet">

<g transform="translate(0.000000,1100.000000) scale(0.100000,-0.100000)"
fill="#000000" stroke="none">
<path d="M2603 10989 c-137 -8 -325 -33 -423 -56 -36 -8 -74 -17 -84 -19 -49
-9 -211 -59 -296 -91 -142 -53 -346 -153 -331 -163 9 -5 10 -10 2 -14 -6 -4
-11 -2 -11 3 0 6 -5 11 -11 11 -16 0 -197 -108 -220 -131 -10 -10 -19 -17 -19
-14 0 5 -44 -25 -117 -80 -29 -21 -53 -43 -53 -47 0 -4 -6 -8 -12 -8 -13 -1
-59 -40 -155 -132 -52 -50 -63 -68 -42 -68 5 0 7 -5 3 -11 -4 -8 -9 -7 -15 2
-9 15 -27 1 -88 -65 -20 -22 -41 -44 -46 -50 -44 -47 -63 -79 -59 -94 4 -12 3
-13 -3 -4 -7 9 -24 -7 -65 -60 -110 -145 -248 -375 -248 -413 0 -10 -3 -15 -6
-12 -4 4 -20 -22 -36 -56 -110 -231 -200 -535 -232 -782 -25 -197 -25 -204
-11 -199 9 4 12 -1 10 -13 -2 -10 -4 -20 -4 -23 -1 -3 -5 1 -10 8 -17 28 -21
-218 -21 -1369 0 -783 4 -1205 10 -1242 14 -75 41 -133 85 -184 33 -39 67 -60
49 -31 -4 7 -3 8 5 4 6 -4 9 -12 5 -17 -3 -5 21 -22 53 -37 l58 -27 1080 -3
c747 -2 1094 1 1125 8 25 6 50 12 56 12 26 3 119 74 118 91 -1 10 5 17 16 17
21 0 41 29 66 96 18 46 19 109 24 1159 l5 1110 28 57 c34 69 94 131 162 166
l50 27 3875 5 c3380 4 3879 7 3908 20 17 8 32 21 32 28 0 9 6 12 16 8 12 -5
34 12 75 55 53 54 65 75 60 102 -1 4 5 15 13 23 8 7 17 38 21 66 3 29 5 532 3
1118 l-3 1065 -26 55 c-31 66 -102 140 -161 168 -24 11 -71 25 -103 31 -69 13
-7902 13 -8102 0z m-1563 -623 c0 -3 -4 -8 -10 -11 -5 -3 -10 -1 -10 4 0 6 5
11 10 11 6 0 10 -2 10 -4z"/>
<path d="M8477 5475 c-114 -42 -197 -143 -216 -265 -7 -42 -11 -434 -11 -1127
l0 -1061 -22 -58 c-27 -70 -101 -149 -173 -184 l-50 -25 -3865 -5 c-2910 -4
-3873 -8 -3897 -17 -50 -18 -139 -80 -165 -116 -13 -18 -35 -57 -49 -87 l-24
-55 0 -1105 0 -1105 33 -67 c41 -85 109 -146 195 -176 l62 -22 4110 3 4110 2
135 22 c413 67 772 203 1105 421 671 439 1109 1135 1222 1937 17 121 18 228
18 1495 l0 1365 -29 58 c-35 71 -111 140 -184 167 -51 20 -80 20 -1160 19
-920 0 -1113 -3 -1145 -14z"/>
</g>
</svg>
